<svg xmlns="http://www.w3.org/2000/svg" viewBox="0 0 365.36 454.47"><title>elephantlogoonecolor</title><path d="M257,440.11c1,1,2.79,1.94,3,3.1,1.37,9.16,1.94,18.51,8.35,26.08a6.64,6.64,0,0,1,1.44,3.67c.58,9.39,4.18,17.73,8.46,25.89.81,1.55.91,3.47,1.33,5.2,3.48-.2,6.89-.63,10.29-.54,2.53.06,3.75,1.72,2.22,4.06-1.88,2.87-2.46,5.1.68,7.69,4,3.28,7.7,6.87,13.25,4.14,7.36-3.62,12.52-9.6,16.67-15.92-5.31-2.9-10.62-5.17-15.12-8.54-2.29-1.7-3.14-5.36-4.55-8.18-.36-.72-.16-1.77-.61-2.39-7.4-10.12-6.43-22.88-10.71-34,3.05-7-3.36-11.33-4.85-17-2.3-8.81-.38-12.71,7.69-16.76,1.22-.61,2.89-1.94,2.93-3,.2-4.5,2.92-4.93,6.43-4.8,8.67.3,12.4-6.69,17.3-11.92,1.29-1.39,2.36-3,3.71-4.73,2.18,2.85,4.32,5,5.64,7.51,4,7.73,11.07,10.56,18.88,12.43,12.94,3.11,15.88,8.31,11.66,20.38,5.83-4.65,5-11.55-2.31-18.66,6.78-1.42,13.79-2.33,20.39-4.48a27,27,0,0,0,10.48-6.93c5.76-5.95,10.06-6.1,15.18.33,5,6.2,10.15,12.22,15,18.54,1.27,1.67,1.5,4.14,2.26,6.42-5.64,1.28-10.66,2.38-15.66,3.58-3.17.76-3.27,1.08-2.07,5.4,6.72-8,16.73-6.07,25-9.21,4.92-1.87,9.22-5.67,13.38-9.11,2.92-2.41,5.21-5.6,7.64-8.55,2.11-2.56,3.54-2.06,4.6.77,2.79,7.46,14.86,11.26,21.29,6.74a10.76,10.76,0,0,1,3-1l.42,3c.27,2-.19,4.67.92,6a172.43,172.43,0,0,0,15,15.7c2.94,2.66,4.59,4.18,1.32,7.9-6.12,6.95-8.22,15.07-5.08,24.13,4.05,11.66-1.61,20.44-8.25,29.17a63.57,63.57,0,0,0-6.92,12.56c-5.72,12.81-18.2,18.9-31.83,15.24-2.08-.56-4.16-1.08-6.36-1.64,2.53,3.66,2,14-.24,16.92a12.08,12.08,0,0,0-2.42,6.11c-.24,3.28.33,6.61.61,10.75.55-3.38,1-6,1.62-10,3.4,4.59,1.83,7.66.6,11.24s-1.05,7.77-1.56,11.68c-.47,3.66-1,7.31-1.55,11h-1.8v-22l-2.81.31c1.27,10.43,3,20.84,3.63,31.31a73.64,73.64,0,0,1-1.71,19.56c-1.23,5.66-3.08,6.07-8.58,4.13l-1.95,2.94c-2.65-1.61-5.71-2.52-7.11-4.56-1.57-2.27-2-5.54-2.27-8.43a134.25,134.25,0,0,1-.85-16.75c.08-3.4,1.36-6.76,2.11-10.13,2.27,1.51,4.46,3.15,6.83,4.49a49.27,49.27,0,0,0,5.64,2.36L427,588l-7-2.7,6-2.85h-11.8c-1-3.25-2.28-6.46-2.95-9.78-1.34-6.6-1.93-13.38-3.67-19.86a14.94,14.94,0,0,0-5.56-7.69c-6.62-4.58-14.19-5.37-21.94-3.25-3.35.92-4.46.22-2.74-3.3L362,550.5l-.85-1.23c1.76.48,4.18.43,5.11,1.58,1.08,1.35,1.35,3.8,1.13,5.66-.43,3.6-1.86,7.09-2.12,10.67-.24,3.31.48,6.69.82,10,.47,4.56.73,9.15,1.52,13.65.84,4.87,2.13,9.66,3.33,14.45.64,2.56,2.11,5.05,2.1,7.57,0,1.71-1.93,3.41-3,5.11-1.24-1-2.53-2-3.69-3.11a11.43,11.43,0,0,1-1.35-2.5c-1.51,3.27-2.4,6.29-4.2,8.62-.9,1.16-4.14,2-5.13,1.31-2.44-1.72-5.49-4.18-6-6.77-1.14-6.16-1.2-12.57-1.21-18.88,0-7.12.58-14.23.81-21.35a21.4,21.4,0,0,0-.57-3.94c-1.45-9-2.44-18.12-4.54-27-1.19-5-4-8.85.11-14.46,2.09-2.9-.1-8.92-.41-13.53-.19-2.92-.66-4.78,4-4.25,5.55.62,11.36-.79,17-1.53,2.88-.38,5.7-1.77,8.54-1.76,8.18,0,16.21-.26,24.71-5.23-6.26.94-11.18,2-16.15,2.32-3.19.2-6.45-.73-9.68-1.1a7.93,7.93,0,0,0-2.95,0c-7.41,2.2-12.84-1.27-14.48-8.87-.9-4.12.18-9.32-5-11.25.46-2.76.85-5.09,1.28-7.63l-5.27-2.24c0-.44,0-.87.07-1.31l5.07-1.08c-1.89-.37-3.66-.68-5.42-1.05-10.1-2.11-11.46-4.6-8.19-15l-1.59,0c-.14,4.21-.35,8.42-.38,12.63,0,1.62,1.17,3.75.49,4.8-5,7.74-2.7,18.54-10.54,25-.33.28-.37.9.55.94q2.11,4.82,4.21,9.63l.94-.22-3.07-10.59.83-.81,9,7.9v-9.73l4.59,2.4c.79-2,1-4.82,2.39-5.56,3.33-1.82,3.85,1.46,5,3.67,1.54,3.07,3.43,6,5.91,10.21-3-1.42-4.86-3-5.86-2.58a64.57,64.57,0,0,0-11.41,6c-2.32,1.54-3.68,5.05-6.07,5.85-8.22,2.73-11.67,10-16.39,16-4.33,5.52-7.84,6.83-14.61,4.83-4.28-1.26-8.64-2.27-12.88-3.64a4.5,4.5,0,0,1-2.59-2.52c-2-6.74-3.66-13.66-9.58-18.71l3.6,1.3,6.25-7.54c-3,.87-5.93,1.82-8.9,2.5a14.34,14.34,0,0,1-3.74-.14,31,31,0,0,0,.26-3.72c-.15-2.91,0-5.92-.76-8.7-.85-3.34-2.52-6.46-3.7-9.72-2.27-6.23-4.91-12.38-6.55-18.78-2.28-8.92-3.77-18-5.61-27.08ZM405.1,483.05c1.36-2.88,2.73-5.76,4.65-9.83.47,2.93.72,4.45.81,5V452.69l-2.43.26c.57,2.48,1.31,4.94,1.63,7.45.21,1.6.46,4-.44,4.82-5.39,5.19-5.47,11.36-4.07,18-4.21,2.05-7.58,8.26-7.55,14.49l4-6.74c.31,1.94.5,3.11.67,4.15C403.26,491.06,404.18,487.06,405.1,483.05Zm10.55.73c-1.81,5.12-3.54,10.27-5.46,15.35-2.71,7.21-5.55,14.36-8.37,21.62,1.37,2.15,3.39,4.93,5,7.93,1.82,3.45,4.75,6,7.63,6a19.06,19.06,0,0,0-1.88-2.31c-5.43-4.75-6-10-2.82-16.48,1.89-3.92,2.38-8.59,3.13-13,1.09-6.37,1.85-12.8,2.72-19.26V462l-1.29,0Q415,472.92,415.65,483.78ZM353.9,456.1l1.44-.84c-.79-1.54-1.19-3.7-2.45-4.5-2.95-1.86-6.33-3.67-4.9-7.54a9.87,9.87,0,0,1,9.54-6.71c2.26,0,4.5-.42,6.75-.65-10.5-1.08-14.72.88-17.61,7.19-1.69,3.69-3.82,7.18-5.43,10.17l2.57-.17c-.26,1.62-.46,2.84-.95,5.87,2.79-1.76,4.77-2.43,5.87-3.81C351.14,452.1,352.68,452,353.9,456.1ZM394,488.93c-8.36-5.52-11.29-6.2-14.52-1.76-1.72,2.36-2.45,6.74-1.44,9.37.78,2,5,2.78,7.63,4.09.21-.55.41-1.1.62-1.66L382,497.31C388.14,497.65,392.81,496.14,394,488.93Zm-53.87-44.77c11.56-11.23,11.56-11.23,10.06-14.75Zm56.29-33.81-1.51-.9c-1.47,6.27-3.79,11.82-10.75,13.87l4.69,1.06ZM413,440.89l-4.48-4.13c3.43,5.83-.62,3.87-2.92,4.23l2.6,7.31ZM429.64,454c4.45-3.76-1.47-11.08,4.14-14.56C427.05,442.29,433.18,449.9,429.64,454Z" transform="translate(-133.33 -168.09)"/><path d="M257.17,440c-3.79-1.51-21.22-18.6-22.49-22.37a57.41,57.41,0,0,1-1.78-7.73c-.78-4.08-.56-8.62-2.32-12.19-5.65-11.42-11.15-23.1-18.43-33.47-4.67-6.67-11.72-12.36-18.87-16.45-13.71-7.83-19.71-20.55-25.07-34.12-2.56-6.47-5.41-12.82-7.89-19.31-4.4-11.5-7.79-23-6.68-35.8.7-8,1-17.23-7.28-23.14-.74-.53-1.27-2.82-.82-3.32,2.42-2.69,1.13-5.85,1.72-8.7a48.4,48.4,0,0,1,5.52-14c.75-1.3,4.53-1.27,6.84-1,.85.08,1.87,2.44,2.11,3.87,1,5.9,1.6,11.86,2.58,17.75.37,2.19,1.39,4.27,2.29,6.9,2.12-10.09,4.08-19.39,6-28.7l1.68-.18-5.94-2.4,21.11-3.53a39.23,39.23,0,0,1-10.22,21.89c-4.24,4.78-7.06,9.85-7.42,16.28-.24,4.28-.76,8.54-1.23,13.7l-1.79.83L155.9,237.52l-1.73.9c.74,3.75,1.6,7.47,2.18,11.23a24.55,24.55,0,0,1,.41,7.43c-2.15,13.69,2.57,25.91,7.76,38.07,1.5,3.51,2.93,7.06,4.45,10.56,4.06,9.42,7.89,18.94,12.37,28.15,1.36,2.8,4.36,4.95,6.94,7,6,4.71,12.49,8.88,18.33,13.8,7,5.91,13.43,12.33,16.31,21.59,1.16,3.72,4.33,6.77,5.77,10.44,2.47,6.27,5.17,12.66,6.21,19.25a33.77,33.77,0,0,0,11.6,21.31c4.12,3.61,7.07,8.55,10.54,12.89Z" transform="translate(-133.33 -168.09)"/><path d="M385.69,589l-5.46,2.17c-.32-1.69-.77-3.37-.92-5.08-1.12-12.54-2.11-25.1-3.29-37.63-.31-3.2.43-5.07,4-5.4,2.62-.24,5.21-1.33,7.79-1.27,10,.24,11.5,1.94,12.23,11.87.67,9.1,2.11,18.17,2.22,27.27.05,4.3-2.22,8.62-3.67,13.74L395,590.91c-1.7,4-3,1.24-4.57-.82l-2.82,5Z" transform="translate(-133.33 -168.09)"/><path d="M154.52,170.18c1.89,10.07,3.63,19.34,5.36,28.61.78,4.17-1.07,6.21-5.2,6.59a70.42,70.42,0,0,0-10.58,1.78c4.79.76,5.1,2.73,3.07,6.38-1.67,3-2.46,6.48-4,10.73-3.29-3.21-6.34-6.09-9.25-9.09a2.55,2.55,0,0,1-.48-2.3Q143,192.3,152.7,171.8C152.88,171.4,153.4,171.15,154.52,170.18Z" transform="translate(-133.33 -168.09)"/><path d="M156.59,168.09l25.09,31.7c-5.34,1.15-10.72,2.43-16.17,3.36a3.59,3.59,0,0,1-2.84-2.06C160.6,190.58,158.75,180,156.59,168.09Z" transform="translate(-133.33 -168.09)"/><path d="M224.92,242.67c6.81.59,13.63,3.16,18.39,1.05s11-6.75,9.24-15.14l2,.85c-.66,3-1.14,6.12-2,9.09a57,57,0,0,1-2.93,6.84c-2.51,5.5-2.36,10.28,3.54,13.57a3,3,0,0,1,2,2.39c-8.66-5.1-15.68-13.69-27.34-10.39l-.17-1.43a41.11,41.11,0,0,1,5.78-.92c2.28-.05,4.56.35,7.17-.55Z" transform="translate(-133.33 -168.09)"/><path d="M296.79,294.07c5.61.32,11.24,1.06,16.82.79a17.46,17.46,0,0,0,9-3.18c9.51-7,19.79-6.85,30.41-4,1.86.49,3.36,2.28,4.86,4.06-10.44-4.44-19.93-1.07-29.36,2.94l-.54-1.74,17.2-5.59c-6.67-.77-13.29,0-18.36,3.94C317.18,298.87,307.06,297,296.79,294.07Z" transform="translate(-133.33 -168.09)"/><path d="M277.34,290.84c-5-4.58-8.72-9.81-8.19-18.76L283,281.83Z" transform="translate(-133.33 -168.09)"/><path d="M211.36,259.66c-.6-8.73-1.26-18.22-1.91-27.71l1.79-.21c.38,3.75.67,7.52,1.16,11.26,1.07,8.22,4.24,10.69,11.63,9.58Z" transform="translate(-133.33 -168.09)"/><path d="M178.5,258.13h25l.2,1.78c-1.69.29-3.36.68-5.06.85-2.89.29-5.23,0-8.23,2.49-3.38,2.81-8.61-.1-12.14-3.31Z" transform="translate(-133.33 -168.09)"/><path d="M163.51,208.79c6.28-.81,6.66-.38,5.15,5-1,3.47-1.83,7-3.77,10.51C164.44,219.23,164,214.19,163.51,208.79Z" transform="translate(-133.33 -168.09)"/><path d="M384.9,496.28c-1.72-2.43-3.81-4.12-3.57-5.38.27-1.48,3-3.89,3.89-3.59,2.19.8,3.91,2.86,5.83,4.42Z" transform="translate(-133.33 -168.09)"/></svg>